<svg xmlns="http://www.w3.org/2000/svg" width="166" height="40" viewBox="0 0 166 40">
  <rect width="166" height="40" rx="8" fill="#713f12"/>
  <circle cx="22" cy="20" r="13" fill="#f59e0b"/>
  <g transform="translate(22,20) scale(0.78) translate(-12,-12)">
    <g>
      <animateTransform attributeName="transform" type="rotate"
                        from="0 12 12" to="360 12 12"
                        dur="1.4s" repeatCount="indefinite"/>
      <path d="M17.65 6.35C16.2 4.9 14.21 4 12 4c-4.42 0-7.99 3.58-7.99 8s3.57 8 7.99 8c3.73 0 6.84-2.55 7.73-6h-2.08c-.82 2.33-3.04 4-5.65 4-3.31 0-6-2.69-6-6s2.69-6 6-6c1.66 0 3.14.69 4.22 1.78L13 11h7V4l-2.35 2.35z" fill="white"/>
    </g>
  </g>
  <text x="100" y="25" text-anchor="middle" fill="white" font-family="system-ui,-apple-system,BlinkMacSystemFont,sans-serif" font-size="15" font-weight="700" letter-spacing="1">IN PROGRESS</text>
</svg>
